PathFileType	4	(X/Y/Z)	c:/Users/goper/Files/vsCode/490R/osim_files/C15/C15_Static02.trc
DataRate	CameraRate	NumFrames	NumMarkers	Units                	OrigDataRate	OrigDataStartFrame	OrigNumFrames
250.00	250.00	5	36	mm	250.0	256	1020
                Frame#	Time	LPSIS			LASIS			LTH1			LTH2			LTH3			LTH4			LLFE			LMFE			LSH1			LSH2			LSH3			LSH4			LLMAL			LMMAL			LCAL			LMTP5			LTOE			LMTP1			RPSIS			RASIS			RTH1			RTH2			RTH3			RTH4			RLFE			RMFE			RSH1			RSH2			RSH3			RSH4			RLMAL			RMMAL			RCAL			RMTP1			RTOE			RMTP5		
		X1	Y1	Z1	X2	Y2	Z2	X3	Y3	Z3	X4	Y4	Z4	X5	Y5	Z5	X6	Y6	Z6	X7	Y7	Z7	X8	Y8	Z8	X9	Y9	Z9	X10	Y10	Z10	X11	Y11	Z11	X12	Y12	Z12	X13	Y13	Z13	X14	Y14	Z14	X15	Y15	Z15	X16	Y16	Z16	X17	Y17	Z17	X18	Y18	Z18	X19	Y19	Z19	X20	Y20	Z20	X21	Y21	Z21	X22	Y22	Z22	X23	Y23	Z23	X24	Y24	Z24	X25	Y25	Z25	X26	Y26	Z26	X27	Y27	Z27	X28	Y28	Z28	X29	Y29	Z29	X30	Y30	Z30	X31	Y31	Z31	X32	Y32	Z32	X33	Y33	Z33	X34	Y34	Z34	X35	Y35	Z35	X36	Y36	Z36

256	1.02000	-439.40521	1029.26086	405.27844	-277.57776	1009.86908	330.64417	-362.87018	634.89240	252.03329	-365.44739	588.12384	264.26828	-310.89011	639.19684	252.87019	-311.98254	593.87250	259.22873	-345.67706	500.89587	277.25800	-337.42929	477.00735	395.94754	-413.90271	395.60242	260.26050	-416.71271	353.24286	251.05881	-352.18301	388.84775	256.35516	-362.48666	345.80762	247.47566	-403.23199	84.69360	288.44113	-382.98727	103.88407	379.06305	-463.94836	57.76812	331.65970	-280.99112	35.81998	263.43707	-224.69029	59.23962	326.29391	-260.44135	39.05956	381.45389	-430.40060	1029.90942	525.05219	-272.24844	1006.47595	581.22479	-342.29050	642.78308	653.22571	-342.35910	595.61676	647.93091	-282.84348	638.12213	639.93811	-290.91937	591.98065	639.39227	-337.38278	498.10153	625.46942	-354.43335	474.14163	509.56863	-426.07825	399.23361	650.47046	-427.70880	356.12421	657.51770	-364.34085	388.79904	652.35089	-376.02826	348.47635	660.12891	-416.85846	84.08213	617.10535	-387.78958	102.82234	529.43817	-477.21115	58.13792	572.62823	-273.59460	37.73120	534.88202	-239.33023	55.99506	588.40106	-299.51785	30.98575	653.96735
257	1.02400	-439.41006	1029.23999	405.27234	-277.52719	1009.90460	330.62949	-362.86563	634.87952	252.02740	-365.31268	588.23413	264.17175	-310.90100	639.20929	252.84372	-312.28217	593.81024	259.44122	-345.66653	500.89114	277.25562	-337.44058	477.05060	395.92392	-413.93472	395.61334	260.28662	-416.70255	353.22650	251.03596	-352.20197	388.88239	256.34384	-362.48792	345.82520	247.45531	-403.23663	84.68501	288.43414	-382.99896	103.89495	379.04364	-463.98566	57.76558	331.68781	-281.00217	35.83056	263.42102	-224.68285	59.30009	326.26001	-260.47083	39.08572	381.43042	-430.42899	1029.91077	525.03741	-272.23596	1006.53265	581.19879	-342.35236	642.80273	653.20355	-342.41730	595.65625	647.93225	-282.86584	638.14948	639.91608	-290.92075	592.02435	639.38281	-337.41171	498.16464	625.44275	-354.46454	474.13824	509.57352	-426.13535	399.24014	650.44531	-427.75040	356.14304	657.47369	-364.33078	388.84143	652.31165	-376.05316	348.51978	660.10175	-416.93149	84.11012	617.06543	-387.83475	102.84187	529.42273	-477.30914	58.18707	572.57355	-273.48245	37.96592	534.91907	-239.34108	56.06344	588.37311	-299.51633	31.00380	653.92926
258	1.02800	-439.42197	1029.25452	405.25549	-277.51300	1009.91150	330.65417	-362.86295	634.87079	252.01962	-365.41949	588.12354	264.22809	-310.89203	639.22192	252.86003	-312.02213	593.89447	259.24973	-345.67279	500.88058	277.26816	-337.47461	477.05334	395.93561	-413.93256	395.61545	260.28857	-416.71555	353.25195	251.05627	-352.16727	388.87323	256.34482	-362.48956	345.82858	247.47020	-403.25452	84.67553	288.43604	-383.02722	103.89845	379.03314	-463.95251	57.75228	331.65695	-281.03647	35.80930	263.42999	-224.71162	59.27866	326.26910	-260.48459	39.09491	381.42426	-430.40680	1029.91223	525.01312	-272.21683	1006.52856	581.19434	-342.39343	642.82104	653.20898	-342.28021	595.91711	647.93103	-282.88397	638.15979	639.93567	-290.94995	592.03345	639.38232	-337.43121	498.19006	625.43524	-354.48151	474.12210	509.56750	-426.18454	399.25177	650.43134	-427.78436	356.16986	657.44531	-364.39273	388.84027	652.31653	-376.07968	348.53052	660.10437	-416.97015	84.13101	617.07758	-387.84937	102.82793	529.42859	-477.33530	58.18064	572.54620	-273.52826	37.95955	534.94489	-239.35725	56.06185	588.36871	-299.53775	31.00481	653.91846
259	1.03200	-439.42383	1029.27332	405.22879	-277.45560	1009.92004	330.65451	-362.87308	634.88940	252.02571	-365.30826	588.24316	264.18118	-310.89520	639.21350	252.86444	-311.97296	593.89557	259.23874	-345.67691	500.90500	277.25851	-337.47604	477.07159	395.93021	-413.95148	395.63992	260.28699	-416.72440	353.26910	251.02141	-352.18210	388.89655	256.35999	-362.52020	345.81332	247.49037	-403.29077	84.67930	288.43689	-383.04346	103.90530	379.03577	-463.98779	57.82617	331.63620	-281.03979	35.82459	263.42026	-224.71797	59.27948	326.28137	-260.48978	39.08761	381.43665	-430.44693	1029.93579	524.97937	-272.23642	1006.51495	581.23059	-342.38348	642.81488	653.20300	-342.28238	595.91718	647.90729	-282.92010	638.16205	639.93634	-290.95242	592.03510	639.39722	-337.42221	498.19507	625.44183	-354.52582	474.11783	509.55301	-426.20346	399.23743	650.44379	-427.80234	356.13855	657.45673	-364.40158	388.84763	652.31757	-376.10599	348.53912	660.09637	-416.96558	84.11783	617.03888	-387.84177	102.85160	529.41608	-477.32117	58.14308	572.53162	-273.52142	37.96309	534.94525	-239.38058	56.04543	588.37836	-299.56467	31.02127	653.91504
260	1.03600	-439.40414	1029.28809	405.21661	-277.42642	1009.91827	330.65686	-362.85391	634.90216	252.02429	-365.31775	588.24951	264.20593	-310.87808	639.21112	252.86116	-312.21005	593.86761	259.44141	-345.69214	500.89926	277.27707	-337.41153	477.10257	395.90726	-413.93527	395.64133	260.25723	-416.69461	353.29922	251.01140	-352.18219	388.91095	256.34146	-362.49002	345.82867	247.46428	-403.30774	84.69308	288.43466	-383.00812	103.89464	379.01761	-464.00891	57.85529	331.59091	-280.91724	36.00939	263.25574	-224.71977	59.26358	326.28638	-260.48288	39.07507	381.43658	-430.39581	1029.94800	524.97266	-272.20779	1006.48108	581.25122	-342.37988	642.79803	653.20184	-342.54623	595.86096	647.74835	-282.89151	638.15851	639.94275	-290.94611	592.01630	639.40259	-337.43610	498.15619	625.43439	-354.53900	474.12430	509.55972	-426.17767	399.21729	650.42633	-427.69870	356.08560	657.48621	-364.41187	388.82672	652.32898	-376.07553	348.53195	660.09674	-416.93832	84.10168	617.02374	-387.84039	102.85796	529.40192	-477.24838	58.07888	572.55310	-273.53159	37.92925	534.98206	-239.34610	56.07175	588.37347	-299.53143	31.00543	653.91052
